Coordinates
version=1
nRows=12
nColumns=24
inDegrees=yes

Units are S.I. units (second, meters, Newtons, ...)
Angles are in degrees.

endheader
time	pelvis_tilt	pelvis_list	pelvis_rotation	pelvis_tx	pelvis_ty	pelvis_tz	hip_flexion_r	hip_adduction_r	hip_rotation_r	knee_angle_r	ankle_angle_r	subtalar_angle_r	mtp_angle_r	hip_flexion_l	hip_adduction_l	hip_rotation_l	knee_angle_l	ankle_angle_l	subtalar_angle_l	mtp_angle_l	lumbar_extension	lumbar_bending	lumbar_rotation
      1.98500000	     10.28275025	     -6.80372773	      7.31525114	      0.23575149	      0.95295046	     -0.00034952	     -6.12281891	     11.90651601	    -11.77394896	     -8.45306940	     16.66303914	     -9.57696569	     16.06074921	      7.79276402	     -9.85945500	      0.13789168	    -64.23789834	     12.63990467	     -7.87159725	     29.61479932	    -16.84724701	      8.70772337	     -0.80321779
      1.99000000	     10.43976772	     -6.48529057	      7.24732652	      0.24134976	      0.95399682	     -0.00017318	     -6.93944832	     11.67825562	    -11.51595611	     -8.01900702	     16.71639284	     -9.67037188	     16.02413258	      7.96965428	     -9.48597225	     -0.12093752	    -63.52307656	     13.16579842	     -7.66858168	     29.56881842	    -17.06141577	      8.35348996	     -0.80908193
      1.99500000	     10.63041518	     -6.13304465	      7.16529284	      0.24695685	      0.95507647	      0.00000162	     -7.78669549	     11.40740980	    -11.33017394	     -7.60566853	     16.77279400	     -9.66492518	     15.99029299	      8.06554473	     -9.08237294	     -0.41750706	    -62.70828344	     13.64465701	     -7.53541143	     29.43465973	    -17.31859175	      7.96029511	     -0.81631796
      2.00000000	     10.79896965	     -5.77907606	      7.07319912	      0.25256885	      0.95608660	      0.00014158	     -8.59699821	     11.12150947	    -11.16705601	     -7.21810327	     16.83534645	     -9.63390977	     15.95127158	      8.16101102	     -8.66914051	     -0.72406131	    -61.82527712	     14.10527259	     -7.42618721	     29.23964614	    -17.54676130	      7.56751919	     -0.82455096
      2.00500000	     10.97214629	     -5.42282169	      6.96950274	      0.25814720	      0.95704234	      0.00031479	     -9.39878737	     10.82955556	    -11.01823315	     -6.84963243	     16.90582778	     -9.59782283	     15.90300882	      8.23067329	     -8.26044085	     -1.04993059	    -60.87553526	     14.54630611	     -7.33336668	     29.00345940	    -17.78595936	      7.16388906	     -0.82633746
      2.01000000	     11.12380196	     -5.05943455	      6.86143402	      0.26369459	      0.95791643	      0.00047809	    -10.16664969	     10.52246388	    -10.86134881	     -6.49536011	     17.02981779	     -9.56141361	     15.85551649	      8.30668843	     -7.83358882	     -1.36498270	    -59.86363429	     14.93158956	     -7.26585931	     28.76842181	    -18.00310447	      6.74925396	     -0.80474345
      2.01500000	     11.28531240	     -4.69577076	      6.73592458	      0.26925659	      0.95876602	      0.00064853	    -10.93063133	     10.20715326	    -10.75440398	     -6.16960844	     17.11344104	     -9.49686730	     15.78961892	      8.33626367	     -7.41844683	     -1.72968532	    -58.76713250	     15.30975667	     -7.26375292	     28.49441844	    -18.23059655	      6.33298968	     -0.79215348
      2.02000000	     11.44365078	     -4.33427666	      6.60254224	      0.27478408	      0.95953997	      0.00083348	    -11.67927939	      9.88831228	    -10.63061679	     -5.85835435	     17.24700752	     -9.42405839	     15.72196585	      8.35155251	     -7.00407035	     -2.09193721	    -57.60929043	     15.63790586	     -7.29321707	     28.22820372	    -18.45648483	      5.91175958	     -0.76451458
      2.02500000	     11.59408625	     -3.96769917	      6.45893490	      0.28030803	      0.96026084	      0.00100932	    -12.40374475	      9.55530218	    -10.54225942	     -5.57509144	     17.37844352	     -9.33669877	     15.64272860	      8.34509171	     -6.58390389	     -2.47615297	    -56.37205687	     15.93002796	     -7.38571226	     27.96250810	    -18.67454982	      5.48362173	     -0.73308254
      2.03000000	     11.75409377	     -3.60297466	      6.31103232	      0.28582784	      0.96093237	      0.00117456	    -13.12752459	      9.21924247	    -10.48201915	     -5.30824876	     17.52291438	     -9.22304747	     15.54817693	      8.30116599	     -6.16778869	     -2.87216540	    -55.06169221	     16.18507559	     -7.52468046	     27.69791846	    -18.90004049	      5.05734001	     -0.69029830
      2.03500000	     11.90894173	     -3.24095021	      6.15219463	      0.29133176	      0.96153276	      0.00134323	    -13.82978564	      8.87722928	    -10.41730365	     -5.06785934	     17.69865167	     -9.10081827	     15.45147949	      8.23887611	     -5.75566145	     -3.28581825	    -53.68261292	     16.39120511	     -7.71860128	     27.46168561	    -19.12147274	      4.62991248	     -0.64388807
      2.04000000	     12.05904133	     -2.87822785	      5.98657066	      0.29683332	      0.96207957	      0.00150629	    -14.51457545	      8.52717313	    -10.36811068	     -4.84842455	     17.88562527	     -8.96123977	     15.34752945	      8.15048838	     -5.34099909	     -3.71233364	    -52.22366386	     16.55229299	     -7.97269921	     27.25206712	    -19.33629927	      4.19851885	     -0.59618473
